<svg width="160" height="30" viewBox="0 0 160 30" fill="none" xmlns="http://www.w3.org/2000/svg">
<ellipse cx="12" cy="15" rx="12" ry="12.1062" fill="#272727"/>
<circle cx="17.1322" cy="14.929" r="2.76106" fill="white"/>
<circle cx="12.035" cy="9.76106" r="2.76106" fill="white"/>
<circle cx="12.035" cy="20.2388" r="2.76106" fill="white"/>
<circle cx="6.86702" cy="14.929" r="2.76106" fill="white"/>
<path d="M14.7914 9.83179C14.827 10.1836 14.6846 11.2512 13.4031 12.4159C13.1463 12.6665 12.6368 13.5302 12.6204 14.9999H11.4495C11.4559 14.5609 11.2481 13.0149 10.6622 12.4159C9.80788 11.5424 9.27393 10.7417 9.27393 9.83179H14.7914Z" fill="white"/>
<path d="M14.7914 20.1681C14.827 19.8162 14.6846 18.7487 13.4031 17.584C13.1463 17.3333 12.6368 16.4697 12.6204 14.9999H11.4495C11.4559 15.439 11.2481 16.9849 10.6622 17.584C9.80788 18.4575 9.27393 19.2582 9.27393 20.1681H14.7914Z" fill="white"/>
<path d="M33.2889 15.275C33.2889 13.575 33.6722 12.05 34.4389 10.7C35.2055 9.33333 36.2472 8.26667 37.5639 7.5C38.8972 6.73333 40.3722 6.35 41.9889 6.35C43.8889 6.35 45.5472 6.80833 46.9639 7.725C48.3805 8.64167 49.4139 9.94167 50.0639 11.625H47.3389C46.8555 10.575 46.1555 9.76667 45.2389 9.2C44.3389 8.63333 43.2555 8.35 41.9889 8.35C40.7722 8.35 39.6805 8.63333 38.7139 9.2C37.7472 9.76667 36.9889 10.575 36.4389 11.625C35.8889 12.6583 35.6139 13.875 35.6139 15.275C35.6139 16.6583 35.8889 17.875 36.4389 18.925C36.9889 19.9583 37.7472 20.7583 38.7139 21.325C39.6805 21.8917 40.7722 22.175 41.9889 22.175C43.2555 22.175 44.3389 21.9 45.2389 21.35C46.1555 20.7833 46.8555 19.975 47.3389 18.925H50.0639C49.4139 20.5917 48.3805 21.8833 46.9639 22.8C45.5472 23.7 43.8889 24.15 41.9889 24.15C40.3722 24.15 38.8972 23.775 37.5639 23.025C36.2472 22.2583 35.2055 21.2 34.4389 19.85C33.6722 18.5 33.2889 16.975 33.2889 15.275ZM66.1504 6.575L60.4754 17.425V24H58.2004V17.425L52.5004 6.575H55.0254L59.3254 15.4L63.6254 6.575H66.1504ZM86.725 6.7V24H84.45V11.1L78.7 24H77.1L71.325 11.075V24H69.05V6.7H71.5L77.9 21L84.3 6.7H86.725ZM99.8082 15.025C100.442 15.125 101.017 15.3833 101.533 15.8C102.067 16.2167 102.483 16.7333 102.783 17.35C103.1 17.9667 103.258 18.625 103.258 19.325C103.258 20.2083 103.033 21.0083 102.583 21.725C102.133 22.425 101.475 22.9833 100.608 23.4C99.7582 23.8 98.7499 24 97.5832 24H91.0832V6.575H97.3332C98.5165 6.575 99.5249 6.775 100.358 7.175C101.192 7.55833 101.817 8.08333 102.233 8.75C102.65 9.41667 102.858 10.1667 102.858 11C102.858 12.0333 102.575 12.8917 102.008 13.575C101.458 14.2417 100.725 14.725 99.8082 15.025ZM93.3582 14.1H97.1832C98.2499 14.1 99.0749 13.85 99.6582 13.35C100.242 12.85 100.533 12.1583 100.533 11.275C100.533 10.3917 100.242 9.7 99.6582 9.2C99.0749 8.7 98.2332 8.45 97.1332 8.45H93.3582V14.1ZM97.3832 22.125C98.5165 22.125 99.3999 21.8583 100.033 21.325C100.667 20.7917 100.983 20.05 100.983 19.1C100.983 18.1333 100.65 17.375 99.9832 16.825C99.3165 16.2583 98.4249 15.975 97.3082 15.975H93.3582V22.125H97.3832ZM109.19 6.575V24H106.915V6.575H109.19ZM121.468 24.175C119.851 24.175 118.376 23.8 117.043 23.05C115.709 22.2833 114.651 21.225 113.868 19.875C113.101 18.5083 112.718 16.975 112.718 15.275C112.718 13.575 113.101 12.05 113.868 10.7C114.651 9.33333 115.709 8.275 117.043 7.525C118.376 6.75833 119.851 6.375 121.468 6.375C123.101 6.375 124.584 6.75833 125.918 7.525C127.251 8.275 128.301 9.325 129.068 10.675C129.834 12.025 130.218 13.5583 130.218 15.275C130.218 16.9917 129.834 18.525 129.068 19.875C128.301 21.225 127.251 22.2833 125.918 23.05C124.584 23.8 123.101 24.175 121.468 24.175ZM121.468 22.2C122.684 22.2 123.776 21.9167 124.743 21.35C125.726 20.7833 126.493 19.975 127.043 18.925C127.609 17.875 127.893 16.6583 127.893 15.275C127.893 13.875 127.609 12.6583 127.043 11.625C126.493 10.575 125.734 9.76667 124.768 9.2C123.801 8.63333 122.701 8.35 121.468 8.35C120.234 8.35 119.134 8.63333 118.168 9.2C117.201 9.76667 116.434 10.575 115.868 11.625C115.318 12.6583 115.043 13.875 115.043 15.275C115.043 16.6583 115.318 17.875 115.868 18.925C116.434 19.975 117.201 20.7833 118.168 21.35C119.151 21.9167 120.251 22.2 121.468 22.2ZM139.246 24.175C138.096 24.175 137.063 23.975 136.146 23.575C135.246 23.1583 134.538 22.5917 134.021 21.875C133.504 21.1417 133.238 20.3 133.221 19.35H135.646C135.729 20.1667 136.063 20.8583 136.646 21.425C137.246 21.975 138.113 22.25 139.246 22.25C140.329 22.25 141.179 21.9833 141.796 21.45C142.429 20.9 142.746 20.2 142.746 19.35C142.746 18.6833 142.563 18.1417 142.196 17.725C141.829 17.3083 141.371 16.9917 140.821 16.775C140.271 16.5583 139.529 16.325 138.596 16.075C137.446 15.775 136.521 15.475 135.821 15.175C135.138 14.875 134.546 14.4083 134.046 13.775C133.563 13.125 133.321 12.2583 133.321 11.175C133.321 10.225 133.563 9.38333 134.046 8.65C134.529 7.91667 135.204 7.35 136.071 6.95C136.954 6.55 137.963 6.35 139.096 6.35C140.729 6.35 142.063 6.75833 143.096 7.575C144.146 8.39167 144.738 9.475 144.871 10.825H142.371C142.288 10.1583 141.938 9.575 141.321 9.075C140.704 8.55833 139.888 8.3 138.871 8.3C137.921 8.3 137.146 8.55 136.546 9.05C135.946 9.53333 135.646 10.2167 135.646 11.1C135.646 11.7333 135.821 12.25 136.171 12.65C136.538 13.05 136.979 13.3583 137.496 13.575C138.029 13.775 138.771 14.0083 139.721 14.275C140.871 14.5917 141.796 14.9083 142.496 15.225C143.196 15.525 143.796 16 144.296 16.65C144.796 17.2833 145.046 18.15 145.046 19.25C145.046 20.1 144.821 20.9 144.371 21.65C143.921 22.4 143.254 23.0083 142.371 23.475C141.488 23.9417 140.446 24.175 139.246 24.175ZM151.169 8.425V14.25H157.519V16.125H151.169V22.125H158.269V24H148.894V6.55H158.269V8.425H151.169Z" fill="#272727"/>
</svg>
